<svg xmlns="http://www.w3.org/2000/svg" xmlns:xlink="http://www.w3.org/1999/xlink" width="540" zoomAndPan="magnify" viewBox="0 0 404.88 95.999999" height="128" preserveAspectRatio="xMidYMid meet" version="1.0"><defs><g/><clipPath id="91c1a2660a"><path d="M 0 0.015625 L 404.761719 0.015625 L 404.761719 95.984375 L 0 95.984375 Z M 0 0.015625 " clip-rule="nonzero"/></clipPath><clipPath id="263148b7c7"><path d="M 11.066406 9.03125 L 184.269531 9.03125 L 184.269531 86.972656 L 11.066406 86.972656 Z M 11.066406 9.03125 " clip-rule="nonzero"/></clipPath></defs><g clip-path="url(#91c1a2660a)"><path fill="#ffffff" d="M 0 0.015625 L 404.878906 0.015625 L 404.878906 103.484375 L 0 103.484375 Z M 0 0.015625 " fill-opacity="1" fill-rule="nonzero"/><path fill="#ffffff" d="M 0 0.015625 L 404.878906 0.015625 L 404.878906 95.984375 L 0 95.984375 Z M 0 0.015625 " fill-opacity="1" fill-rule="nonzero"/><path fill="#ffffff" d="M 0 0.015625 L 404.878906 0.015625 L 404.878906 95.984375 L 0 95.984375 Z M 0 0.015625 " fill-opacity="1" fill-rule="nonzero"/><path stroke-linecap="butt" transform="matrix(0.749778, 0, 0, 0.749778, 0.00000423276, 0.0142237)" fill="none" stroke-linejoin="miter" d="M -0.00000564535 0.00186892 L 539.998558 0.00186892 L 539.998558 127.998132 L -0.00000564535 127.998132 L -0.00000564535 0.00186892 " stroke="#5d5dff" stroke-width="8" stroke-opacity="1" stroke-miterlimit="4"/></g><g clip-path="url(#263148b7c7)"><path fill="#5d5dff" d="M 11.066406 9.03125 L 184.269531 9.03125 L 184.269531 86.972656 L 11.066406 86.972656 Z M 11.066406 9.03125 " fill-opacity="1" fill-rule="nonzero"/></g><g fill="#ffffff" fill-opacity="1"><g transform="translate(21.168832, 61.500813)"><g><path d="M 1.9375 -25.96875 L 1.9375 -29.09375 L 23.75 -29.09375 L 23.75 -25.96875 L 14.609375 -25.96875 L 14.609375 0 L 11.078125 0 L 11.078125 -25.96875 Z M 1.9375 -25.96875 "/></g></g></g><g fill="#ffffff" fill-opacity="1"><g transform="translate(50.845071, 61.500813)"><g><path d="M 22.609375 -29.09375 L 26.140625 -29.09375 L 26.140625 -9.828125 C 26.140625 -7.648438 25.625 -5.789062 24.59375 -4.25 C 23.5625 -2.707031 22.1875 -1.523438 20.46875 -0.703125 C 18.75 0.109375 16.867188 0.515625 14.828125 0.515625 C 12.785156 0.515625 10.90625 0.109375 9.1875 -0.703125 C 7.476562 -1.523438 6.101562 -2.707031 5.0625 -4.25 C 4.03125 -5.789062 3.515625 -7.648438 3.515625 -9.828125 L 3.515625 -29.09375 L 7.046875 -29.09375 L 7.046875 -9.828125 C 7.046875 -8.316406 7.40625 -7.035156 8.125 -5.984375 C 8.84375 -4.941406 9.789062 -4.144531 10.96875 -3.59375 C 12.15625 -3.050781 13.441406 -2.78125 14.828125 -2.78125 C 16.210938 -2.78125 17.492188 -3.050781 18.671875 -3.59375 C 19.859375 -4.144531 20.8125 -4.941406 21.53125 -5.984375 C 22.25 -7.035156 22.609375 -8.316406 22.609375 -9.828125 Z M 22.609375 -29.09375 "/></g></g></g><g fill="#ffffff" fill-opacity="1"><g transform="translate(84.497782, 61.500813)"><g><path d="M 1.9375 -25.96875 L 1.9375 -29.09375 L 23.75 -29.09375 L 23.75 -25.96875 L 14.609375 -25.96875 L 14.609375 0 L 11.078125 0 L 11.078125 -25.96875 Z M 1.9375 -25.96875 "/></g></g></g><g fill="#ffffff" fill-opacity="1"><g transform="translate(114.174021, 61.500813)"><g><path d="M 28.0625 -14.546875 C 28.0625 -11.472656 27.507812 -8.816406 26.40625 -6.578125 C 25.300781 -4.347656 23.78125 -2.628906 21.84375 -1.421875 C 19.914062 -0.210938 17.710938 0.390625 15.234375 0.390625 C 12.742188 0.390625 10.53125 -0.210938 8.59375 -1.421875 C 6.664062 -2.628906 5.148438 -4.347656 4.046875 -6.578125 C 2.941406 -8.816406 2.390625 -11.472656 2.390625 -14.546875 C 2.390625 -17.609375 2.941406 -20.257812 4.046875 -22.5 C 5.148438 -24.738281 6.664062 -26.460938 8.59375 -27.671875 C 10.53125 -28.878906 12.742188 -29.484375 15.234375 -29.484375 C 17.710938 -29.484375 19.914062 -28.878906 21.84375 -27.671875 C 23.78125 -26.460938 25.300781 -24.738281 26.40625 -22.5 C 27.507812 -20.257812 28.0625 -17.609375 28.0625 -14.546875 Z M 24.65625 -14.546875 C 24.65625 -17.066406 24.234375 -19.191406 23.390625 -20.921875 C 22.554688 -22.648438 21.425781 -23.957031 20 -24.84375 C 18.582031 -25.738281 16.992188 -26.1875 15.234375 -26.1875 C 13.460938 -26.1875 11.863281 -25.738281 10.4375 -24.84375 C 9.019531 -23.957031 7.890625 -22.648438 7.046875 -20.921875 C 6.210938 -19.191406 5.796875 -17.066406 5.796875 -14.546875 C 5.796875 -12.023438 6.210938 -9.894531 7.046875 -8.15625 C 7.890625 -6.425781 9.019531 -5.113281 10.4375 -4.21875 C 11.863281 -3.332031 13.460938 -2.890625 15.234375 -2.890625 C 16.992188 -2.890625 18.582031 -3.332031 20 -4.21875 C 21.425781 -5.113281 22.554688 -6.425781 23.390625 -8.15625 C 24.234375 -9.894531 24.65625 -12.023438 24.65625 -14.546875 Z M 24.65625 -14.546875 "/></g></g></g><g fill="#ffffff" fill-opacity="1"><g transform="translate(148.622023, 61.500813)"><g><path d="M 3.515625 0 L 3.515625 -29.09375 L 13.359375 -29.09375 C 15.628906 -29.09375 17.492188 -28.707031 18.953125 -27.9375 C 20.410156 -27.164062 21.488281 -26.101562 22.1875 -24.75 C 22.882812 -23.40625 23.234375 -21.878906 23.234375 -20.171875 C 23.234375 -18.234375 22.789062 -16.546875 21.90625 -15.109375 C 21.019531 -13.679688 19.648438 -12.648438 17.796875 -12.015625 L 24.375 0 L 20.28125 0 L 14.140625 -11.375 C 13.910156 -11.363281 13.664062 -11.359375 13.40625 -11.359375 L 7.046875 -11.359375 L 7.046875 0 Z M 7.046875 -14.546875 L 13.296875 -14.546875 C 15.628906 -14.546875 17.289062 -15.046875 18.28125 -16.046875 C 19.269531 -17.054688 19.765625 -18.429688 19.765625 -20.171875 C 19.765625 -21.921875 19.265625 -23.320312 18.265625 -24.375 C 17.273438 -25.4375 15.597656 -25.96875 13.234375 -25.96875 L 7.046875 -25.96875 Z M 7.046875 -14.546875 "/></g></g></g><g fill="#fd5f51" fill-opacity="1"><g transform="translate(194.411572, 61.500813)"><g><path d="M 2.53125 0 L 2.53125 -29.09375 L 8.671875 -29.09375 L 8.671875 -17.09375 L 21.171875 -17.09375 L 21.171875 -29.09375 L 27.296875 -29.09375 L 27.296875 0 L 21.171875 0 L 21.171875 -12.015625 L 8.671875 -12.015625 L 8.671875 0 Z M 2.53125 0 "/></g></g></g><g fill="#fd5f51" fill-opacity="1"><g transform="translate(228.248902, 61.500813)"><g><path d="M 2.53125 0 L 2.53125 -29.09375 L 22.125 -29.09375 L 22.125 -24.015625 L 8.671875 -24.015625 L 8.671875 -17.09375 L 21.125 -17.09375 L 21.125 -12.015625 L 8.671875 -12.015625 L 8.671875 -5.078125 L 22.1875 -5.078125 L 22.1875 0 Z M 2.53125 0 "/></g></g></g><g fill="#fd5f51" fill-opacity="1"><g transform="translate(256.746398, 61.500813)"><g><path d="M 2.53125 0 L 2.53125 -29.09375 L 8.671875 -29.09375 L 8.671875 -5.078125 L 21.15625 -5.078125 L 21.15625 0 Z M 2.53125 0 "/></g></g></g><g fill="#fd5f51" fill-opacity="1"><g transform="translate(283.440278, 61.500813)"><g><path d="M 2.53125 0 L 2.53125 -29.09375 L 14 -29.09375 C 16.207031 -29.09375 18.085938 -28.671875 19.640625 -27.828125 C 21.191406 -26.992188 22.378906 -25.832031 23.203125 -24.34375 C 24.023438 -22.863281 24.4375 -21.160156 24.4375 -19.234375 C 24.4375 -17.296875 24.019531 -15.59375 23.1875 -14.125 C 22.351562 -12.65625 21.144531 -11.503906 19.5625 -10.671875 C 17.988281 -9.847656 16.082031 -9.4375 13.84375 -9.4375 L 8.671875 -9.4375 L 8.671875 0 Z M 8.671875 -14.359375 L 12.859375 -14.359375 C 14.617188 -14.359375 15.929688 -14.8125 16.796875 -15.71875 C 17.660156 -16.625 18.09375 -17.796875 18.09375 -19.234375 C 18.09375 -20.679688 17.660156 -21.847656 16.796875 -22.734375 C 15.929688 -23.617188 14.609375 -24.0625 12.828125 -24.0625 L 8.671875 -24.0625 Z M 8.671875 -14.359375 "/></g></g></g><g fill="#fd5f51" fill-opacity="1"><g transform="translate(313.343738, 61.500813)"><g/></g></g><g fill="#fd5f51" fill-opacity="1"><g transform="translate(326.617015, 61.500813)"><g><path d="M 2.53125 -29.09375 L 10.109375 -29.09375 L 18.125 -9.546875 L 18.46875 -9.546875 L 26.484375 -29.09375 L 34.0625 -29.09375 L 34.0625 0 L 28.09375 0 L 28.09375 -18.9375 L 27.859375 -18.9375 L 20.328125 -0.140625 L 16.265625 -0.140625 L 8.734375 -19 L 8.5 -19 L 8.5 0 L 2.53125 0 Z M 2.53125 -29.09375 "/></g></g></g><g fill="#fd5f51" fill-opacity="1"><g transform="translate(367.569393, 61.500813)"><g><path d="M 2.53125 0 L 2.53125 -29.09375 L 22.125 -29.09375 L 22.125 -24.015625 L 8.671875 -24.015625 L 8.671875 -17.09375 L 21.125 -17.09375 L 21.125 -12.015625 L 8.671875 -12.015625 L 8.671875 -5.078125 L 22.1875 -5.078125 L 22.1875 0 Z M 2.53125 0 "/></g></g></g></svg>