<svg xmlns="http://www.w3.org/2000/svg" xmlns:xlink="http://www.w3.org/1999/xlink" width="549" zoomAndPan="magnify" viewBox="0 0 411.75 95.999999" height="128" preserveAspectRatio="xMidYMid meet" version="1.0"><defs><g/><clipPath id="8ba8813e78"><path d="M 0 0.0273438 L 411.5 0.0273438 L 411.5 95.96875 L 0 95.96875 Z M 0 0.0273438 " clip-rule="nonzero"/></clipPath><clipPath id="652a498231"><path d="M 12.324219 11.9375 L 189.582031 11.9375 L 189.582031 84.128906 L 12.324219 84.128906 Z M 12.324219 11.9375 " clip-rule="nonzero"/></clipPath></defs><g clip-path="url(#8ba8813e78)"><path stroke-linecap="butt" transform="matrix(0.859138, 0, 0, 0.859786, 0.0000241337, 0.0291277)" fill="none" stroke-linejoin="miter" d="M -0.0000280907 -0.00207489 L 479.62318 -0.00207489 L 479.62318 111.826231 L -0.0000280907 111.826231 L -0.0000280907 -0.00207489 " stroke="#1d4ed8" stroke-width="10.483806" stroke-opacity="1" stroke-miterlimit="4"/></g><g clip-path="url(#652a498231)"><path fill="#1d4ed8" d="M 12.324219 11.9375 L 189.582031 11.9375 L 189.582031 84.128906 L 12.324219 84.128906 Z M 12.324219 11.9375 " fill-opacity="1" fill-rule="nonzero"/></g><g fill="#ffffff" fill-opacity="1"><g transform="translate(30.087313, 60.535485)"><g><path d="M 1.796875 -24.046875 L 1.796875 -26.9375 L 22 -26.9375 L 22 -24.046875 L 13.53125 -24.046875 L 13.53125 0 L 10.265625 0 L 10.265625 -24.046875 Z M 1.796875 -24.046875 "/></g></g></g><g fill="#ffffff" fill-opacity="1"><g transform="translate(57.574799, 60.535485)"><g><path d="M 20.9375 -26.9375 L 24.203125 -26.9375 L 24.203125 -9.109375 C 24.203125 -7.085938 23.722656 -5.363281 22.765625 -3.9375 C 21.816406 -2.507812 20.546875 -1.414062 18.953125 -0.65625 C 17.367188 0.09375 15.628906 0.46875 13.734375 0.46875 C 11.835938 0.46875 10.09375 0.09375 8.5 -0.65625 C 6.914062 -1.414062 5.644531 -2.507812 4.6875 -3.9375 C 3.738281 -5.363281 3.265625 -7.085938 3.265625 -9.109375 L 3.265625 -26.9375 L 6.53125 -26.9375 L 6.53125 -9.109375 C 6.53125 -7.703125 6.863281 -6.515625 7.53125 -5.546875 C 8.195312 -4.578125 9.078125 -3.835938 10.171875 -3.328125 C 11.265625 -2.828125 12.453125 -2.578125 13.734375 -2.578125 C 15.015625 -2.578125 16.203125 -2.828125 17.296875 -3.328125 C 18.390625 -3.835938 19.269531 -4.578125 19.9375 -5.546875 C 20.601562 -6.515625 20.9375 -7.703125 20.9375 -9.109375 Z M 20.9375 -26.9375 "/></g></g></g><g fill="#ffffff" fill-opacity="1"><g transform="translate(88.745472, 60.535485)"><g><path d="M 1.796875 -24.046875 L 1.796875 -26.9375 L 22 -26.9375 L 22 -24.046875 L 13.53125 -24.046875 L 13.53125 0 L 10.265625 0 L 10.265625 -24.046875 Z M 1.796875 -24.046875 "/></g></g></g><g fill="#ffffff" fill-opacity="1"><g transform="translate(116.232958, 60.535485)"><g><path d="M 26 -13.46875 C 26 -10.625 25.484375 -8.164062 24.453125 -6.09375 C 23.429688 -4.03125 22.023438 -2.4375 20.234375 -1.3125 C 18.441406 -0.1875 16.398438 0.375 14.109375 0.375 C 11.804688 0.375 9.757812 -0.1875 7.96875 -1.3125 C 6.175781 -2.4375 4.765625 -4.03125 3.734375 -6.09375 C 2.710938 -8.164062 2.203125 -10.625 2.203125 -13.46875 C 2.203125 -16.3125 2.710938 -18.765625 3.734375 -20.828125 C 4.765625 -22.898438 6.175781 -24.5 7.96875 -25.625 C 9.757812 -26.75 11.804688 -27.3125 14.109375 -27.3125 C 16.398438 -27.3125 18.441406 -26.75 20.234375 -25.625 C 22.023438 -24.5 23.429688 -22.898438 24.453125 -20.828125 C 25.484375 -18.765625 26 -16.3125 26 -13.46875 Z M 22.84375 -13.46875 C 22.84375 -15.800781 22.453125 -17.769531 21.671875 -19.375 C 20.898438 -20.976562 19.851562 -22.191406 18.53125 -23.015625 C 17.207031 -23.847656 15.734375 -24.265625 14.109375 -24.265625 C 12.472656 -24.265625 10.992188 -23.847656 9.671875 -23.015625 C 8.359375 -22.191406 7.3125 -20.976562 6.53125 -19.375 C 5.757812 -17.769531 5.375 -15.800781 5.375 -13.46875 C 5.375 -11.132812 5.757812 -9.164062 6.53125 -7.5625 C 7.3125 -5.957031 8.359375 -4.742188 9.671875 -3.921875 C 10.992188 -3.097656 12.472656 -2.6875 14.109375 -2.6875 C 15.734375 -2.6875 17.207031 -3.097656 18.53125 -3.921875 C 19.851562 -4.742188 20.898438 -5.957031 21.671875 -7.5625 C 22.453125 -9.164062 22.84375 -11.132812 22.84375 -13.46875 Z M 22.84375 -13.46875 "/></g></g></g><g fill="#ffffff" fill-opacity="1"><g transform="translate(148.140267, 60.535485)"><g><path d="M 3.265625 0 L 3.265625 -26.9375 L 12.359375 -26.9375 C 14.472656 -26.9375 16.203125 -26.578125 17.546875 -25.859375 C 18.898438 -25.148438 19.898438 -24.171875 20.546875 -22.921875 C 21.191406 -21.679688 21.515625 -20.269531 21.515625 -18.6875 C 21.515625 -16.894531 21.101562 -15.332031 20.28125 -14 C 19.46875 -12.675781 18.203125 -11.71875 16.484375 -11.125 L 22.578125 0 L 18.78125 0 L 13.109375 -10.53125 C 12.890625 -10.53125 12.660156 -10.53125 12.421875 -10.53125 L 6.53125 -10.53125 L 6.53125 0 Z M 6.53125 -13.46875 L 12.3125 -13.46875 C 14.46875 -13.46875 16.003906 -13.929688 16.921875 -14.859375 C 17.847656 -15.796875 18.3125 -17.070312 18.3125 -18.6875 C 18.3125 -20.300781 17.847656 -21.597656 16.921875 -22.578125 C 15.992188 -23.554688 14.441406 -24.046875 12.265625 -24.046875 L 6.53125 -24.046875 Z M 6.53125 -13.46875 "/></g></g></g><g fill="#f97316" fill-opacity="1"><g transform="translate(206.304019, 60.533412)"><g><path d="M 2.34375 0 L 2.34375 -26.9375 L 8.03125 -26.9375 L 8.03125 -15.828125 L 19.609375 -15.828125 L 19.609375 -26.9375 L 25.28125 -26.9375 L 25.28125 0 L 19.609375 0 L 19.609375 -11.125 L 8.03125 -11.125 L 8.03125 0 Z M 2.34375 0 "/></g></g></g><g fill="#f97316" fill-opacity="1"><g transform="translate(237.645697, 60.533412)"><g><path d="M 2.34375 0 L 2.34375 -26.9375 L 20.5 -26.9375 L 20.5 -22.25 L 8.03125 -22.25 L 8.03125 -15.828125 L 19.5625 -15.828125 L 19.5625 -11.125 L 8.03125 -11.125 L 8.03125 -4.703125 L 20.546875 -4.703125 L 20.546875 0 Z M 2.34375 0 "/></g></g></g><g fill="#f97316" fill-opacity="1"><g transform="translate(264.041376, 60.533412)"><g><path d="M 2.34375 0 L 2.34375 -26.9375 L 8.03125 -26.9375 L 8.03125 -4.703125 L 19.59375 -4.703125 L 19.59375 0 Z M 2.34375 0 "/></g></g></g><g fill="#f97316" fill-opacity="1"><g transform="translate(288.766465, 60.533412)"><g><path d="M 2.34375 0 L 2.34375 -26.9375 L 12.96875 -26.9375 C 15.007812 -26.9375 16.75 -26.546875 18.1875 -25.765625 C 19.632812 -24.992188 20.734375 -23.921875 21.484375 -22.546875 C 22.242188 -21.179688 22.625 -19.601562 22.625 -17.8125 C 22.625 -16.019531 22.238281 -14.441406 21.46875 -13.078125 C 20.695312 -11.710938 19.582031 -10.644531 18.125 -9.875 C 16.664062 -9.113281 14.898438 -8.734375 12.828125 -8.734375 L 8.03125 -8.734375 L 8.03125 0 Z M 8.03125 -13.296875 L 11.90625 -13.296875 C 13.539062 -13.296875 14.757812 -13.710938 15.5625 -14.546875 C 16.363281 -15.390625 16.765625 -16.476562 16.765625 -17.8125 C 16.765625 -19.15625 16.363281 -20.234375 15.5625 -21.046875 C 14.757812 -21.867188 13.53125 -22.28125 11.875 -22.28125 L 8.03125 -22.28125 Z M 8.03125 -13.296875 "/></g></g></g><g fill="#f97316" fill-opacity="1"><g transform="translate(316.464413, 60.533412)"><g/></g></g><g fill="#f97316" fill-opacity="1"><g transform="translate(328.758727, 60.533412)"><g><path d="M 2.34375 -26.9375 L 9.359375 -26.9375 L 16.78125 -8.84375 L 17.109375 -8.84375 L 24.515625 -26.9375 L 31.546875 -26.9375 L 31.546875 0 L 26.015625 0 L 26.015625 -17.53125 L 25.796875 -17.53125 L 18.828125 -0.125 L 15.0625 -0.125 L 8.09375 -17.609375 L 7.875 -17.609375 L 7.875 0 L 2.34375 0 Z M 2.34375 -26.9375 "/></g></g></g><g fill="#f97316" fill-opacity="1"><g transform="translate(366.690685, 60.533412)"><g><path d="M 2.34375 0 L 2.34375 -26.9375 L 20.5 -26.9375 L 20.5 -22.25 L 8.03125 -22.25 L 8.03125 -15.828125 L 19.5625 -15.828125 L 19.5625 -11.125 L 8.03125 -11.125 L 8.03125 -4.703125 L 20.546875 -4.703125 L 20.546875 0 Z M 2.34375 0 "/></g></g></g></svg>